<?xml version="1.0" encoding="utf-8"?>
<!-- Generator: Adobe Illustrator 27.5.0, SVG Export Plug-In . SVG Version: 6.00 Build 0)  -->
<svg version="1.1" xmlns="http://www.w3.org/2000/svg" xmlns:xlink="http://www.w3.org/1999/xlink" x="0px" y="0px"
	 viewBox="0 0 500 500" style="enable-background:new 0 0 500 500;" xml:space="preserve">
<g id="Floor">
	<ellipse id="Floor_5_" style="fill:#F5F5F5;" cx="250" cy="303.748" rx="238.194" ry="137.521"/>
</g>
<g id="Shadows">
	<polygon id="Shadow_11_" style="fill:#E0E0E0;" points="44.285,254.474 330.553,419.751 463.883,342.773 177.615,177.496 	"/>
	<ellipse id="Shadow_1_" style="fill:#E0E0E0;" cx="68.82" cy="315.935" rx="19.481" ry="11.247"/>
	<ellipse id="Shadow_12_" style="fill:#E0E0E0;" cx="358.031" cy="213.433" rx="45.488" ry="26.263"/>
</g>
<g id="Ball_1_">
	<g id="Ball">
		
			<ellipse transform="matrix(0.7071 -0.7071 0.7071 0.7071 -12.4491 301.7595)" style="fill:#27DEBF;" cx="358.031" cy="165.907" rx="57.341" ry="57.341"/>
		
			<ellipse transform="matrix(0.7071 -0.7071 0.7071 0.7071 -12.4491 301.7595)" style="opacity:0.3;" cx="358.031" cy="165.907" rx="57.341" ry="57.341"/>
		<path style="opacity:0.1;fill:#FFFFFF;" d="M343.496,117.351c-5.351,2.62-10.646,7.454-10.132,13.39
			c0.277,3.202,2.267,6.058,4.759,8.086c2.492,2.028,5.471,3.35,8.41,4.649c10.059,4.443,20.119,8.887,30.178,13.33
			c2.97,1.312,5.986,2.637,9.199,3.1c3.213,0.463,6.706-0.039,9.238-2.07c4.104-3.291,4.502-9.417,3.51-14.583
			C393.889,118.388,365.557,106.547,343.496,117.351z"/>
		<g style="opacity:0.2;">
			<path d="M331.606,121.426c0.556,2.767,2.903,4.979,6.611,6.231c3.72,1.256,8.294,1.339,12.673,0.459
				c4.379-0.879,8.567-2.721,11.514-5.315c2.937-2.585,4.249-5.533,3.694-8.299c-0.508-2.534-2.536-4.594-5.72-5.886
				c-1.224-0.049-2.456-0.055-3.692-0.025c0.858,0.159,1.693,0.361,2.482,0.627c3.355,1.132,5.469,3.079,5.95,5.48
				c0.482,2.401-0.716,5.012-3.374,7.351c-5.656,4.978-16.067,7.069-23.207,4.659c-3.355-1.132-5.468-3.079-5.95-5.48
				c-0.482-2.401,0.716-5.012,3.374-7.352c0.802-0.706,1.707-1.346,2.677-1.931c-1.224,0.438-2.424,0.92-3.603,1.435
				C332.294,115.905,331.068,118.748,331.606,121.426z"/>
			<path d="M305.608,189.133c-0.03-0.069-0.063-0.136-0.092-0.206c0,0.001,0,0.001,0,0.002
				C305.546,188.997,305.578,189.064,305.608,189.133z"/>
			<path d="M409.478,140.573c0.087,0.176,0.176,0.352,0.261,0.529C409.654,140.925,409.565,140.75,409.478,140.573z"/>
			<path d="M306.305,190.671c0.131,0.273,0.269,0.541,0.404,0.812C306.573,191.213,306.435,190.944,306.305,190.671z"/>
			<path d="M412.426,184.028c-1.964,3.615-4.901,7.173-8.728,10.543c-18.707,16.454-53.121,23.363-76.729,15.405
				c-4.835-1.634-8.92-3.783-12.129-6.363c1.052,1.202,2.146,2.362,3.29,3.468c2.508,1.481,5.352,2.772,8.517,3.836
				c11.958,4.035,26.648,4.299,40.717,1.474c14.069-2.825,27.519-8.738,36.993-17.076c2.5-2.207,4.639-4.493,6.376-6.829
				C411.36,187.028,411.921,185.539,412.426,184.028z"/>
			<path d="M402.326,177.375c-19.675,17.322-55.893,24.593-80.729,16.208c-9.44-3.178-16.12-8.223-19.351-14.48
				c0.267,1.13,0.559,2.248,0.888,3.347v0c3.748,5.153,9.938,9.316,18.144,12.085c12.57,4.239,28.019,4.523,42.813,1.553
				c14.795-2.97,28.936-9.196,38.896-17.958c6.508-5.733,10.612-11.962,12.069-18.17c-0.12-1.132-0.28-2.268-0.469-3.405
				C414.02,163.572,409.796,170.804,402.326,177.375z"/>
			<path d="M415.306,168.843c-0.012,0.23-0.03,0.46-0.045,0.69C415.276,169.303,415.295,169.074,415.306,168.843z"/>
			<path d="M391.722,119.518c0.172,0.124,0.345,0.248,0.515,0.374C392.067,119.765,391.894,119.642,391.722,119.518z"/>
			<path d="M321.358,159.932c10.492,3.541,23.384,3.776,35.734,1.296c12.348-2.48,24.154-7.673,32.465-14.988
				c6.867-6.044,10.518-12.764,10.579-19.264c-0.337-0.364-0.687-0.715-1.033-1.07c0.36,6.533-3.182,13.401-10.206,19.583
				c-16.384,14.42-46.537,20.476-67.219,13.495c-8.866-2.992-14.785-7.96-16.975-14.125c-0.182,0.461-0.37,0.92-0.541,1.386
				C306.728,152.218,312.69,157.008,321.358,159.932z"/>
			<path d="M300.947,160.48c2.512,7.278,9.413,13.103,19.708,16.575c11.719,3.961,26.112,4.223,39.907,1.453
				c13.785-2.768,26.972-8.567,36.254-16.744c8.169-7.185,12.276-15.225,11.778-22.912c-0.419-0.783-0.857-1.553-1.309-2.312
				c1.598,8.056-2.357,16.747-11.128,24.48c-18.325,16.122-52.052,22.894-75.18,15.094c-11.073-3.738-18.074-10.218-19.72-18.263
				c-0.123,0.869-0.229,1.742-0.312,2.62C300.945,160.473,300.946,160.476,300.947,160.48z"/>
			<path d="M300.749,163.221c0.017-0.372,0.041-0.745,0.066-1.116C300.791,162.477,300.767,162.848,300.749,163.221z"/>
			<path d="M390.099,118.381c-0.168-0.113-0.335-0.227-0.503-0.338C389.764,118.154,389.931,118.267,390.099,118.381z"/>
			<path d="M326.278,142.78c8.018,2.706,17.872,2.885,27.309,0.99c9.438-1.895,18.458-5.863,24.81-11.454
				c5.764-5.072,8.577-10.772,8.05-16.196c-0.362-0.207-0.722-0.418-1.089-0.618c0.831,5.303-1.851,10.985-7.621,16.063
				c-12.463,10.972-35.405,15.577-51.139,10.267c-7.282-2.458-11.951-6.664-13.231-11.876c-0.262,0.325-0.512,0.659-0.767,0.99
				C314.208,136.153,319.003,140.325,326.278,142.78z"/>
			<path d="M308.691,136.704c0.133-0.223,0.269-0.443,0.404-0.665C308.96,136.261,308.823,136.481,308.691,136.704z"/>
			<path d="M310.47,133.89c-0.138,0.205-0.272,0.412-0.408,0.618C310.197,134.301,310.332,134.095,310.47,133.89z"/>
		</g>
		<path style="opacity:0.1;" d="M343.417,198.74c-34.153-13.115-39.255-38.312-36.559-58.631l-0.016-0.01
			c-5.587,11.063-7.659,24.001-5.03,37.095c6.234,31.049,36.457,51.165,67.506,44.932c25.148-5.049,43.12-25.838,45.732-50.055
			C412.427,189.67,377.549,211.847,343.417,198.74z"/>
	</g>
</g>
<g id="Mat_1_">
	<g id="Mat">
		<polygon style="fill:#27DEBF;" points="44.285,247.281 330.553,412.558 463.883,335.58 177.615,170.303 		"/>
		<polygon style="opacity:0.8;fill:#FFFFFF;" points="44.285,247.281 330.553,412.558 463.883,335.58 177.615,170.303 		"/>
		<path style="opacity:0.05;" d="M343,355.5c2.96,0.563,6.307,0.524,9,2c1.428,0.783,3.768,2.935,5,4c5.53,4.78,10.693,6.83,18,7
			c6.323,0.147,20.935-4.015,21.025-12.227c0.077-5.119-5.632-8.044-10.373-9.977c-26.844-10.942-50.75-28.997-68.621-51.822
			c-6.695-8.551-12.847-18.024-22.19-23.562c-5.954-3.529-12.794-5.194-19.476-6.997c-36.398-9.819-71.326-25.07-103.27-45.091
			c5.917-11.64,10.048-24.186,12.204-37.065c-7.779-2.721-15.307,4.005-22.98,7.012c-6.005,2.353-12.013,2.265-18.013,1.34
			l-25.473,14.707c1.054,3.743,2.753,7.379,3.919,11.112c1.772,5.677,1.96,12.713-2.471,16.679
			c-2.551,2.283-6.084,3.031-9.442,3.695c-4.683,0.925-9.366,1.851-14.049,2.776c-4.005,0.792-8.617,2.057-10.178,5.83
			c-1.909,4.614,2.149,9.532,6.405,12.143c7.93,4.865,17.382,6.435,26.122,9.624c20.49,7.476,36.527,23.605,55.612,34.165
			c13.216,7.313,27.924,11.916,42.95,13.442c15.564,1.581,31.438-0.095,46.794,2.897c12.063,2.35,24.35,5.647,36.178,9.208
			c6.36,1.915,12.628,4.366,18.274,7.905c2.84,1.78,5.515,3.835,7.889,6.205c2.297,2.292,3.857,5.255,5.86,7.81
			C334.839,352.319,338.241,354.595,343,355.5z"/>
		<polygon style="fill:#27DEBF;" points="44.285,247.281 44.285,249.879 330.553,415.155 330.553,412.558 		"/>
		<polygon style="opacity:0.6;fill:#FFFFFF;" points="44.285,247.281 44.285,249.879 330.553,415.155 330.553,412.558 		"/>
		<polygon style="fill:#27DEBF;" points="330.553,412.558 463.883,335.58 463.883,338.178 330.553,415.155 		"/>
		<polygon style="opacity:0.45;fill:#FFFFFF;" points="330.553,412.558 463.883,335.58 463.883,338.178 330.553,415.155 		"/>
	</g>
</g>
<g id="Bottle">
	<g id="Water">
		<g id="XMLID_1136_">
			<path style="fill:#27DEBF;" d="M82.533,291.898c-0.438-1.96-1.446-4.054-2.279-5.885c-0.098-0.214-0.202-0.428-0.311-0.642
				c-1.821-3.596-1.81-7.851,0.163-11.366c0.068-0.121,0.135-0.242,0.201-0.362c1.229-2.232,1.758-4.149,1.762-6.691
				c0.008-1.939-1.262-4.839-3.819-6.326c-0.555-0.328-1.15-0.615-1.773-0.861c-1.151-0.465-1.926-1.56-1.921-2.807l0.014-3.464
				l-11.091-0.043l-0.013,3.464c-0.005,1.247-0.789,2.336-1.943,2.792c-0.625,0.242-1.222,0.524-1.779,0.847
				c-2.568,1.468-3.861,4.358-3.868,6.296c-0.017,2.542,0.498,4.463,1.709,6.705c0.061,0.113,0.123,0.226,0.186,0.339
				c1.956,3.536,1.941,7.799,0.093,11.392c-0.11,0.214-0.215,0.427-0.314,0.639c-0.847,1.824-1.879,3.91-2.325,5.867
				c-0.431,1.898-0.534,3.937-0.542,5.968l-0.063,16.136c-0.008,2.097,1.365,4.193,4.121,5.797c2.253,1.31,5.086,2.095,8.015,2.34
				c1.33,0.115,2.682,0.12,4.005,0.016c2.924-0.237,5.733-0.993,7.982-2.278c2.769-1.582,4.158-3.667,4.166-5.757l0.045-11.671
				c0.006-1.454,0.063-2.974,0.069-4.494C83.029,295.824,82.949,293.792,82.533,291.898z"/>
			<path style="opacity:0.3;" d="M82.533,291.898c-0.438-1.96-1.446-4.054-2.279-5.885c-0.098-0.214-0.202-0.428-0.311-0.642
				c-1.821-3.596-1.81-7.851,0.163-11.366c0.068-0.121,0.135-0.242,0.201-0.362c1.229-2.232,1.758-4.149,1.762-6.691
				c0.008-1.939-1.262-4.839-3.819-6.326c-0.555-0.328-1.15-0.615-1.773-0.861c-1.151-0.465-1.926-1.56-1.921-2.807l0.014-3.464
				l-11.091-0.043l-0.013,3.464c-0.005,1.247-0.789,2.336-1.943,2.792c-0.625,0.242-1.222,0.524-1.779,0.847
				c-2.568,1.468-3.861,4.358-3.868,6.296c-0.017,2.542,0.498,4.463,1.709,6.705c0.061,0.113,0.123,0.226,0.186,0.339
				c1.956,3.536,1.941,7.799,0.093,11.392c-0.11,0.214-0.215,0.427-0.314,0.639c-0.847,1.824-1.879,3.91-2.325,5.867
				c-0.431,1.898-0.534,3.937-0.542,5.968l-0.063,16.136c-0.008,2.097,1.365,4.193,4.121,5.797c2.253,1.31,5.086,2.095,8.015,2.34
				c1.33,0.115,2.682,0.12,4.005,0.016c2.924-0.237,5.733-0.993,7.982-2.278c2.769-1.582,4.158-3.667,4.166-5.757l0.045-11.671
				c0.006-1.454,0.063-2.974,0.069-4.494C83.029,295.824,82.949,293.792,82.533,291.898z"/>
			<path style="opacity:0.1;" d="M80.106,274.004c0.068-0.121,0.135-0.242,0.201-0.362c1.057-1.921,1.594-3.61,1.726-5.662
				c-0.256,0.803-0.612,1.58-1.052,2.292c-1.271,2.058-3.124,3.684-4.998,5.214c-1.9,1.551-4.012,3.315-4.248,5.756
				c-0.228,2.363,1.438,4.51,3.334,5.938c1.896,1.428,4.114,2.434,5.818,4.087c0.743,0.72,1.361,1.548,1.932,2.413
				c-0.072-0.603-0.16-1.201-0.287-1.783c-0.438-1.96-1.446-4.054-2.279-5.885c-0.098-0.214-0.202-0.427-0.311-0.642
				C78.122,281.775,78.133,277.52,80.106,274.004z"/>
			<g>
				<path id="XMLID_1142_" style="fill:#27DEBF;" d="M61.604,257.316l-0.007,1.865c-0.012,1.111,0.722,2.233,2.196,3.094
					c2.933,1.708,7.7,1.726,10.653,0.041c0.733-0.421,1.29-0.909,1.658-1.434c0.368-0.518,0.552-1.073,0.555-1.629l0.007-1.894
					c0.001-0.168-0.013-0.336-0.056-0.505c-0.179-0.944-0.892-1.861-2.132-2.582c-0.037-0.022-0.073-0.044-0.11-0.059
					c-2.948-1.649-7.635-1.646-10.544,0.017c-1.246,0.712-1.973,1.623-2.16,2.558C61.62,256.966,61.605,257.141,61.604,257.316z"/>
				<path id="XMLID_327_" style="opacity:0.1;" d="M61.604,257.316l-0.007,1.865c-0.012,1.111,0.722,2.233,2.196,3.094
					c2.933,1.708,7.7,1.726,10.653,0.041c0.733-0.421,1.29-0.909,1.658-1.434c0.368-0.518,0.552-1.073,0.555-1.629l0.007-1.894
					c0.001-0.168-0.013-0.336-0.056-0.505c-0.179-0.944-0.892-1.861-2.132-2.582c-0.037-0.022-0.073-0.044-0.11-0.059
					c-2.948-1.649-7.635-1.646-10.544,0.017c-1.246,0.712-1.973,1.623-2.16,2.558C61.62,256.966,61.605,257.141,61.604,257.316z"/>
				<path id="XMLID_1141_" style="opacity:0.2;" d="M74.451,260.425c2.948-1.686,2.959-4.44,0.024-6.149
					c-2.935-1.71-7.703-1.728-10.651-0.041c-2.948,1.687-2.959,4.44-0.024,6.149C66.734,262.093,71.503,262.111,74.451,260.425z"/>
				<path id="XMLID_1137_" style="fill:#27DEBF;" d="M61.613,255.141l-0.004,1.122c-0.001,0.176,0.013,0.351,0.056,0.527
					c0.179,0.937,0.899,1.853,2.14,2.575c1.313,0.766,2.993,1.189,4.704,1.269c2.128,0.11,4.315-0.298,5.95-1.235
					c0.733-0.421,1.283-0.902,1.658-1.427c0.257-0.357,0.42-0.737,0.494-1.117c0.044-0.168,0.06-0.344,0.06-0.512l0.005-1.159
					c0.005-1.119-0.722-2.233-2.189-3.087c-0.132-0.074-0.263-0.147-0.401-0.214c-2.956-1.496-7.438-1.44-10.252,0.172
					C62.353,252.907,61.61,254.023,61.613,255.141z"/>
				<path id="XMLID_297_" style="opacity:0.1;" d="M61.613,255.141l-0.004,1.122c-0.001,0.176,0.013,0.351,0.056,0.527
					c0.179,0.937,0.899,1.853,2.14,2.575c1.313,0.766,2.993,1.189,4.704,1.269c2.128,0.11,4.315-0.298,5.95-1.235
					c0.733-0.421,1.283-0.902,1.658-1.427c0.257-0.357,0.42-0.737,0.494-1.117c0.044-0.168,0.06-0.344,0.06-0.512l0.005-1.159
					c0.005-1.119-0.722-2.233-2.189-3.087c-0.132-0.074-0.263-0.147-0.401-0.214c-2.956-1.496-7.438-1.44-10.252,0.172
					C62.353,252.907,61.61,254.023,61.613,255.141z"/>
				<path style="fill:#27DEBF;" d="M61.613,255.104c-0.009,2.391,3.355,4.343,7.515,4.359c4.159,0.016,7.539-1.909,7.548-4.3
					c0.009-2.391-3.355-4.343-7.514-4.359C65.002,250.788,61.622,252.713,61.613,255.104z"/>
			</g>
		</g>
		<path id="XMLID_1134_" style="fill:#27DEBF;" d="M66.552,250.662l-0.015,3.9c0,0.061,0.005,0.122,0.02,0.182
			c0.062,0.325,0.312,0.642,0.742,0.892c0.455,0.265,1.037,0.412,1.63,0.44c0.737,0.038,1.496-0.103,2.062-0.428
			c0.254-0.146,0.445-0.313,0.575-0.495c0.089-0.124,0.145-0.255,0.171-0.387c0.015-0.058,0.021-0.119,0.021-0.177l0.015-3.913
			c0.002-0.388-0.25-0.774-0.758-1.07c-0.046-0.025-0.091-0.051-0.139-0.074c-1.024-0.518-2.577-0.499-3.553,0.06
			C66.808,249.888,66.551,250.275,66.552,250.662z"/>
		<path id="XMLID_291_" style="opacity:0.1;" d="M66.552,250.662l-0.015,3.9c0,0.061,0.005,0.122,0.02,0.182
			c0.062,0.325,0.312,0.642,0.742,0.892c0.455,0.265,1.037,0.412,1.63,0.44c0.737,0.038,1.496-0.103,2.062-0.428
			c0.254-0.146,0.445-0.313,0.575-0.495c0.089-0.124,0.145-0.255,0.171-0.387c0.015-0.058,0.021-0.119,0.021-0.177l0.015-3.913
			c0.002-0.388-0.25-0.774-0.758-1.07c-0.046-0.025-0.091-0.051-0.139-0.074c-1.024-0.518-2.577-0.499-3.553,0.06
			C66.808,249.888,66.551,250.275,66.552,250.662z"/>
		<path style="fill:#27DEBF;" d="M66.552,250.649c-0.003,0.829,1.163,1.505,2.604,1.511c1.441,0.006,2.613-0.662,2.616-1.49
			c0.003-0.828-1.163-1.505-2.604-1.51C67.726,249.154,66.555,249.821,66.552,250.649z"/>
		<path style="opacity:0.5;fill:#27DEBF;" d="M68.235,250.656c-0.001,0.294,0.413,0.534,0.924,0.536
			c0.512,0.002,0.927-0.235,0.929-0.529c0.001-0.294-0.413-0.534-0.925-0.536C68.652,250.125,68.236,250.362,68.235,250.656z"/>
		<path style="opacity:0.3;" d="M68.235,250.656c-0.001,0.294,0.413,0.534,0.924,0.536c0.512,0.002,0.927-0.235,0.929-0.529
			c0.001-0.294-0.413-0.534-0.925-0.536C68.652,250.125,68.236,250.362,68.235,250.656z"/>
	</g>
</g>
<g id="Character">
	<g id="Character_9_">
		<path style="fill:#FFA8A7;" d="M194.798,223.282c0,0,6.908-56.157,5.347-76.668c-0.8-10.518-5.888-12.903-13.664-12.303
			c-7.776,0.6-52.277,24.249-52.277,24.249l6.293,15.303l37.07-11.629c0,0-3.768,21.848-4.64,26.002
			c-0.871,4.154-2.694,9.743-4.14,14.753c-0.71,2.462-1.698,5.666-1.698,7.218C167.089,213.86,194.798,223.282,194.798,223.282z"/>
		<path style="fill:#F28F8F;" d="M177.566,162.234c5.155-1.019,10.312-4.052,11.93-6.479c0,0-0.809,3.757-5.157,6.479
			c-4.348,2.722-7.441,3.855-7.441,3.855L177.566,162.234z"/>
		<path style="fill:#263238;" d="M264.838,222.289c-0.774-2.862-5.794-5.874-20.756-8.384c-14.962-2.51-28.57,0.018-28.644,1.766
			s3.688,13.609,20.936,15.762C253.621,233.586,266.415,228.565,264.838,222.289z"/>
		<g id="Character_8_">
			<path style="fill:#FFA8A7;" d="M219.835,246.599c0,0-9.75-63.245-8.347-76.159c1.449-13.336,6.51-19.527,14.986-20.396
				c11.09,6.444,16.995,21.832,24.088,36.986c7.093,15.153,14.774,47.71,15.18,63.256c0.404,15.472-11.887,26.628-25.819,28.654
				C225.99,280.966,219.835,246.599,219.835,246.599z"/>
			<path style="fill:#F28F8F;" d="M235.158,197.087c-7.714-6.453-8.558-14.424-8.558-14.424l13.906-4.853l9.411,7.828
				c0.093,0.202,0.187,0.403,0.28,0.605c0.121,0.262,0.242,0.525,0.365,0.787c0.269,0.575,0.539,1.183,0.81,1.807
				c0.078,0.179,0.155,0.364,0.233,0.546c0.207,0.487,0.415,0.987,0.622,1.5c0.07,0.174,0.141,0.345,0.211,0.522
				c0.275,0.692,0.55,1.4,0.825,2.133c0.003,0.009,0.006,0.018,0.01,0.026c0.272,0.728,0.544,1.48,0.815,2.245
				c0.057,0.162,0.115,0.326,0.172,0.49c0.24,0.687,0.48,1.385,0.719,2.096c0.035,0.104,0.07,0.207,0.105,0.312
				c0.564,1.695,1.121,3.455,1.667,5.263c0.029,0.096,0.058,0.193,0.087,0.29c0.267,0.888,0.531,1.785,0.792,2.694
				c0.002,0.006,0.003,0.012,0.005,0.017C257.622,206.968,244.695,205.066,235.158,197.087z"/>
			<path style="fill:#FFA8A7;" d="M223.587,150.587c5.296-2.096,11.751,2.798,15.158,4.981c6.928,4.439,49.301,37.462,59.181,45.199
				c2.143,1.295,4.323,2.544,6.541,3.727l-11.641,18.201c-0.98-2.733-2.504-5.055-4.393-7.039
				c-10.562-7.538-31.023-11.649-44.16-16.768c-10.235-3.986-12.378-6.24-15.829-12.088
				C225.765,182.258,216.232,154.05,223.587,150.587z"/>
			<path style="fill:#37474F;" d="M219.621,246.945l-4.184-31.274c0,0,3.756,8.628,23.113,10.892
				c19.357,2.264,26.777-1.012,26.287-4.274c0,0,5.057,19.575,3.099,32.299c-1.958,12.724-21.369,26.263-21.369,26.263
				L219.621,246.945z"/>
			<path style="opacity:0.15;" d="M228.195,251.192c-1.778,0.035-3.446,0.11-5.03,0.212l21.517,27.073h5.025
				c5.576-4.433,16.769-14.387,18.231-23.889c1.435-9.329-0.899-22.332-2.248-28.611
				C266.461,233.18,250.318,250.759,228.195,251.192z"/>
			<g>
				<path style="fill:#27DEBF;" d="M325.121,178.057c-6.962-1.297-10.254,3.748-12.839,7.914
					c-2.585,4.166-6.897,11.824-8.825,13.115c-1.928,1.291-3.044-0.025-5.753,2.074c-2.709,2.099-4.76,5.956-3.911,7.426
					c0.849,1.47,2.007,3.475,2.007,3.475s-3.239-0.625-6.231,2.35c-2.992,2.975-1.439,3.504,0.253,5.201
					c1.692,1.697,5.654,9.38,9.636,11.477c0,0,10.716-3.217,18.492-15.37C325.726,203.565,325.121,178.057,325.121,178.057z"/>
				<path style="fill:#37474F;" d="M301.643,232.695c-1.206-0.27-2.934-1.407-2.366-3.744c0.568-2.337,2.599-6.65,5.294-10.466
					c2.695-3.816,7.736-10.965,8.588-14.927c0.853-3.962,2.679-14.938,5.667-19.551c2.988-4.614,6.065-7.269,10.018-5.784
					c3.953,1.485-8.502,31.032-12.149,36.026C313.047,219.243,301.643,232.695,301.643,232.695z"/>
				<path style="fill:#263238;" d="M303.943,232.058c9.849-5.252,13.096-10.356,15.967-16.968
					c2.871-6.612,9.709-12.789,11.465-18.758c1.756-5.968,1.946-21.281-4.829-17.57c-6.775,3.711-8.176,17.399-11.151,25.31
					C312.418,211.983,294.283,237.209,303.943,232.058z"/>
			</g>
			<path style="fill:#263238;" d="M244.745,248.261c4.503-0.682,13.154,1.175,21.007,12.135c8.433,11.77,10.014,32.311,4.715,33.973
				c0,0-12.263-1.449-20.681-5.85C241.367,284.12,227.207,254.302,244.745,248.261z"/>
			<g id="XMLID_336_">
				<path style="fill:#FFA8A7;" d="M388.556,346.224c-13.061-5.133-23.748-13.948-33.021-23.805
					c-7.436-10.108-39.314-53.358-44.851-59.445c-1.963-2.16-6.737-7.716-13.307-9.112c-23.264-4.942-66.331-4.255-66.331-4.255
					l-16.558-2.788l-33.015,31.06c4.551,4.846,10.264,9.072,18.609,13.426c8.345,4.355,17.385,7.508,29.562,6.478
					c24.38-2.062,38.984-8.951,52.057-12.004c3.775-0.882,7.696-1.692,10.664,4.507c2.938,6.121,3.21,9.307,11.997,15.898
					c11.278,8.462,29.88,17.923,38.027,28.022c1.287,2.418,2.13,5.065,2.34,7.961c0.768,10.622,9.689,8.539,16.883,13.161
					c3.91,2.512,6.826,5.572,11.548,6.618c4.187,0.928,8.827,0.751,12.98-0.241c3.835-0.915,9.336-3.681,11.225-7.419
					C399.866,349.339,392.301,347.696,388.556,346.224z"/>
			</g>
			<g id="XMLID_328_">
				<path style="fill:#FFA8A7;" d="M388.556,346.224c-13.061-5.133-23.748-13.948-33.021-23.805
					c-7.436-10.108-39.314-53.358-44.851-59.445c-1.963-2.16-6.737-7.716-13.307-9.112c-23.264-4.942-66.331-4.255-66.331-4.255
					l-16.558-2.788l-33.015,31.06c4.551,4.846,10.264,9.072,18.609,13.426c8.345,4.355,17.385,7.508,29.562,6.478
					c24.38-2.062,38.984-8.951,52.057-12.004c3.775-0.882,7.696-1.692,10.664,4.507c2.938,6.121,3.21,9.307,11.997,15.898
					c11.278,8.462,29.88,17.923,38.027,28.022c1.287,2.418,2.13,5.065,2.34,7.961c0.768,10.622,9.689,8.539,16.883,13.161
					c3.91,2.512,6.826,5.572,11.548,6.618c4.187,0.928,8.827,0.751,12.98-0.241c3.835-0.915,9.336-3.681,11.225-7.419
					C399.866,349.339,392.301,347.696,388.556,346.224z"/>
			</g>
			<path style="fill:#F28F8F;" d="M303.636,301.159c-2.546-2.639-4.265-6.04-5.518-9.485c-1.055-2.9-1.889-5.812-3.444-8.506
				c-4.062-7.036-30.974,1.93-42.93,5.59c-0.671,1.022-3.468,4.011-4.471,6.497c14.454-2.948,24.854-7.239,34.427-9.474
				c3.775-0.882,7.697-1.692,10.665,4.507c2.938,6.121,3.21,9.307,11.997,15.898c4.583,3.439,10.376,7.043,16.185,10.787
				C314.059,311.935,309.164,306.888,303.636,301.159z"/>
			<path style="fill:#455A64;" d="M217.053,246.819c0,0,23.674,1.155,27.692,1.442c0,0-8.905,2.409,1.934,24.313
				c10.842,21.913,23.788,21.795,23.788,21.795c-16.992,5.435-25.829,11.544-47.499,8.993
				c-25.829-3.731-41.495-23.071-41.495-23.071L217.053,246.819z"/>
			<path style="opacity:0.15;" d="M270.404,294.368c-0.01,0-0.014,0-0.027-0.001c-0.103-0.003-0.302-0.015-0.588-0.048
				c-0.006-0.001-0.011-0.001-0.017-0.002c-1.929-0.226-7.662-1.479-14.097-8.331c0,0,0,0,0,0
				c-4.845,1.304-10.091,2.469-15.471,3.257c-19.317,2.831-33.81-0.577-55.398-12.086l-3.333,3.135c0,0,11.819,14.579,31.842,20.861
				v0c0.754,0.237,1.52,0.462,2.296,0.674c0.006,0.002,0.012,0.004,0.018,0.005c0.727,0.198,1.465,0.383,2.211,0.558
				c0.065,0.015,0.128,0.033,0.193,0.047c0.686,0.158,1.383,0.301,2.085,0.438c0.124,0.024,0.244,0.052,0.368,0.076
				c0.816,0.153,1.643,0.292,2.481,0.413c1.355,0.159,2.659,0.285,3.918,0.379c1.259,0.094,2.473,0.156,3.648,0.19
				c0.587,0.017,1.164,0.026,1.732,0.028c0.568,0.002,1.126-0.003,1.676-0.014c1.65-0.035,3.221-0.13,4.731-0.278
				c1.007-0.099,1.987-0.221,2.945-0.365c2.395-0.359,4.653-0.852,6.853-1.442c0.88-0.236,1.751-0.488,2.618-0.753
				c2.168-0.662,4.31-1.408,6.508-2.201c0.879-0.317,1.767-0.642,2.669-0.972c3.156-1.156,6.483-2.377,10.2-3.566
				C270.467,294.37,270.441,294.369,270.404,294.368z"/>
			<g>
				<path style="fill:#27DEBF;" d="M137.911,216.985c-9.624,3.344-18.716,9.176-11.057,26.27
					c11.057,24.678,60.86,52.083,86.465,57.904c-13.037-19.67-2.182-40.522,6.302-54.214l-2.235-16.708
					c0,0-7.681-3.687-20.403-13.523c-12.722-9.835-17.952-12.496-36.929-6.736C147.05,213.924,137.911,216.985,137.911,216.985z"/>
				<path style="opacity:0.05;" d="M176.874,272.76c-26.181-15.026-34.411-28.356-44.682-41.188l-6.717,8.202c0,0,0,0,0,0
					c0.183,0.531,0.384,1.074,0.602,1.629c0.012,0.03,0.022,0.059,0.034,0.09c0.227,0.573,0.473,1.159,0.743,1.761
					c4.837,10.797,17.091,22.115,31.49,31.92c2.057,1.401,4.158,2.771,6.287,4.103c1.064,0.666,2.136,1.324,3.213,1.971
					c7.538,4.531,15.33,8.575,22.717,11.876c8.442,3.773,16.356,6.577,22.757,8.033c-3.087-4.658-4.822-9.382-5.579-14.061
					C198.612,284.329,188.857,279.637,176.874,272.76z"/>
				<path style="fill:#FFA8A7;" d="M130.682,220.331c0,0-32.288-17.259-37.399-19.582l28.215-16.593l-5.993-15.567
					c0,0-42.04,14.928-49.98,19.221c-4.185,2.263-5.971,4.138-5.98,7.359c-0.015,5.367,5.111,12.328,12.185,18.359
					c15.055,12.834,35.476,24.775,55.363,35.729c4.558,3.382,9.301,7.633,9.301,7.633
					C141.63,259.475,149.234,235.294,130.682,220.331z"/>
				<g>
					<g id="XMLID_267_">
						<g id="XMLID_302_">
							<path style="fill:#263238;" d="M160.911,160.349c-4.2-9.751-15.509-14.25-25.26-10.05c-9.75,4.2-14.25,15.509-10.05,25.259
								c0.135,0.315,0.298,0.608,0.449,0.912l-4.885,10.619l-7.209-13.291c-0.009-2.168-1.651-4.033-3.793-4.217
								c-2.221-0.191-4.12,1.495-4.241,3.766l5.512,0.475c-0.952,0.648-2.014,1.678-2.646,3.318
								c-1.317,3.422,3.244,10.393,9.356,16.512c0,0,8.65,12.209,10.749,13.923c2.099,1.714,4.74,1.321,4.74,1.321l0.52-24.026
								c4.989,2.68,11.102,3.153,16.708,0.739C160.611,181.409,165.111,170.1,160.911,160.349z"/>
							<path id="XMLID_326_" style="fill:#FFA8A7;" d="M125.419,191.258c-0.803,1.111-3.238-0.301-5.172-1.121
								c-1.933-0.82-7.104-0.852-7.304,4.656c-0.204,5.613,6.575,9.992,10.463,9.592c6.7-0.69,5.955-4.857,5.955-4.857l9.887,21.754
								l0,0c11.391,6.247,32.589-3.571,19.87-9.744l-2.808-6.472c0,0,4.522-1.24,6.957-2.767c4.052-2.541,5.307-7.142,4.6-12.407
								c-1.136-8.458-2.957-14.897-11.145-28.966c-8.974-15.42-27.968-7.439-35.415,3.393
								C113.861,175.149,125.419,191.258,125.419,191.258z"/>
							<path id="XMLID_315_" style="fill:#263238;" d="M126.202,193.076c-0.539,0.245-4.083-2.295-5.955-2.939
								c-2.594-0.893-6.805-17.286-6.805-17.286s-3.435-3.046-1.547-8.542c1.551-4.517,7.271-7.529,11.232-9.531
								c7.139-3.608,15.127-7.723,18.631-15.286c0.275-0.594,0.682-1.279,1.337-1.288c0.412-0.006,0.77,0.274,1.062,0.564
								c1.741,1.729,2.447,4.26,2.623,6.708c0.017,0.232,0.069,0.519,0.292,0.586c0.207,0.062,0.403-0.117,0.541-0.284
								c0.723-0.878,1.279-1.892,1.632-2.973c0.485-1.488,2.974,2.299,3.18,2.82c1.245,3.143,0.943,7.173-0.555,10.166
								c-1.563,3.123-4.778,5.07-7.71,6.78c-6.551,3.82-17.753,7.455-19.312,7.888c-2.123,0.589-1.714,2.717-0.508,8.491
								C125.398,184.017,128.013,192.254,126.202,193.076z"/>
							<path id="XMLID_306_" style="fill:#F28F8F;" d="M156.311,205.064c0,0-11.705,2.474-15.868,2.132
								c-2.786-0.229-5.553-1.513-6.678-2.616c0,0,1.873,2.602,5.014,4.319c3.842,2.1,18.643-1.256,18.643-1.256L156.311,205.064z"
								/>
						</g>
						<g id="XMLID_268_">
							<path id="XMLID_278_" style="fill:#263238;" d="M138.027,174.619l-3.508,3.792c-1.042-1.023-1.101-2.702-0.132-3.75
								C135.355,173.614,136.985,173.595,138.027,174.619z"/>
							<path id="XMLID_272_" style="fill:#F28F8F;" d="M149.234,194.03l5.149-0.246c0.109,1.459-0.956,2.698-2.378,2.766
								C150.583,196.617,149.342,195.489,149.234,194.03z"/>
							<path id="XMLID_271_" style="fill:#263238;" d="M159.21,168.589l-5.044-1.286c0.305-1.417,1.682-2.278,3.075-1.923
								C158.634,165.734,159.516,167.171,159.21,168.589z"/>
							<polygon id="XMLID_270_" style="fill:#F28F8F;" points="148.539,176.416 151.946,188.685 157.944,185.049 							"/>
						</g>
					</g>
					<path style="fill:#263238;" d="M139.042,181.912c0,1.239,1.005,2.244,2.244,2.244c1.239,0,2.244-1.005,2.244-2.244
						c0-1.239-1.005-2.244-2.244-2.244C140.047,179.668,139.042,180.673,139.042,181.912z"/>
					<path style="fill:#263238;" d="M155.259,175.568c0,1.194,0.968,2.162,2.162,2.162c1.194,0,2.162-0.968,2.162-2.162
						c0-1.194-0.968-2.162-2.162-2.162C156.227,173.407,155.259,174.375,155.259,175.568z"/>
				</g>
			</g>
			<g id="XMLID_14381_">
				<path id="XMLID_14738_" style="fill:#37474F;" d="M343.425,344.422c-0.849,0.581,0.469,4.244,1.239,5.141
					c0.769,0.897,3.001,2.503,5.75,3.239c2.75,0.736,7.718,3.051,10.852,5.679c2.227,1.867,7.69,5.529,13.597,6.839
					c5.907,1.31,12.721-0.368,18.675-3.894c6.239-3.695,5.658-7.228,4.805-9.591L343.425,344.422z"/>
				<path id="XMLID_14772_" style="fill:#27DEBF;" d="M356.928,323.881c1.968,2.128,12.877,12.882,21.231,15.625
					c6.642,2.181,15.299,4.257,19.085,8.313c3.939,4.219-1.924,9.618-10.008,12.715c-8.419,3.225-14.138,0.62-19.727-2.187
					c-3.93-1.973-9.722-5.977-12.63-7.611c-2.907-1.634-8.302-2.493-10.552-4.886c-1.236-1.314-2.128-5.008-2.667-8.225
					c-0.494-2.952-2.473-5.714-1.46-5.871l1.634,1.786C349.447,334.948,357.367,327.927,356.928,323.881z"/>
			</g>
		</g>
		<path style="fill:#F28F8F;" d="M93.284,200.749c-4.139,2.294-10.808,4.747-15.323,5.342c0,0,8.483,2.169,18.621-3.72
			L93.284,200.749z"/>
	</g>
</g>
</svg>
